<svg width="40" height="40" viewBox="0 0 40 40" fill="none" xmlns="http://www.w3.org/2000/svg">
<rect width="40" height="40" rx="20" fill="#F17E07"/>
<path d="M27.9615 21.425H12.0385C11.4652 21.425 11 21.0218 11 20.525C11 20.0282 11.4652 19.625 12.0385 19.625H27.9615C28.5348 19.625 29 20.0282 29 20.525C29 21.0218 28.5348 21.425 27.9615 21.425Z" fill="white"/>
<path d="M20.525 29C20.0282 29 19.625 28.5348 19.625 27.9615V12.0385C19.625 11.4652 20.0282 11 20.525 11C21.0218 11 21.425 11.4652 21.425 12.0385V27.9615C21.425 28.5348 21.0218 29 20.525 29Z" fill="white"/>
</svg>
